<?xml version="1.0"?>
<svg xmlns="http://www.w3.org/2000/svg" viewBox="0 0 24 24">
    <path style="text-indent:0;text-align:start;line-height:normal;text-transform:none;block-progression:tb;-inkscape-font-specification:Bitstream Vera Sans" d="M 6.5 2 C 5.1192881 2 4 3.1192881 4 4.5 C 4 5.8807119 5.1192881 7 6.5 7 C 7.8807119 7 9 5.8807119 9 4.5 C 9 3.1192881 7.8807119 2 6.5 2 z M 6.5 7 L 5.03125 7 C 3.3712908 7 2 8.3712908 2 10.03125 L 2 16 L 4 16 L 4 22 L 6 22 L 6 16 L 7 16 L 7 22 L 9 22 L 9 16 L 9 14.03125 L 9 9 L 14 9 L 14 7 L 6.5 7 z M 12 2 L 12 3 L 10 3 L 10 5 L 20 5 L 20 14 L 10 14 L 10 16 L 11.53125 16 L 10 19.34375 L 10 21 L 11 21 L 13 17 L 15 21 L 17 21 L 14.5 16 L 21 16 L 22 16 L 22 15 L 22 4 L 22 3 L 21 3 L 14 3 L 14 2 L 12 2 z"/>
</svg>
