<?xml version="1.0" standalone="no"?>
<!DOCTYPE svg PUBLIC "-//W3C//DTD SVG 20010904//EN"
 "http://www.w3.org/TR/2001/REC-SVG-20010904/DTD/svg10.dtd">
<svg version="1.0" xmlns="http://www.w3.org/2000/svg"
 width="700.000000pt" height="700.000000pt" viewBox="0 0 700.000000 700.000000"
 preserveAspectRatio="xMidYMid meet">
<metadata>
Created by potrace 1.11, written by Peter Selinger 2001-2013
</metadata>
<g transform="translate(0.000000,700.000000) scale(0.100000,-0.100000)"
fill="#000000" stroke="none">
<path d="M1848 6415 c-1 -1 -28 -5 -58 -8 -109 -12 -240 -67 -335 -141 -70
-55 -76 -60 -126 -122 -73 -92 -131 -218 -154 -339 -6 -32 -7 -174 -2 -215 32
-240 198 -464 418 -563 75 -34 95 -40 179 -56 43 -8 42 -9 -30 -10 -41 -1
-133 -2 -205 -2 -71 -1 -157 -5 -190 -10 -362 -55 -648 -318 -737 -676 -22
-87 -22 -96 -22 -1013 l-1 -925 270 -2 c149 0 279 -2 291 -2 l21 -1 -2 -858
c0 -471 3 -864 7 -873 6 -14 40 -16 293 -16 l285 1 0 873 c0 691 3 873 13 874
95 7 270 2 274 -7 2 -6 5 -400 6 -875 l2 -864 275 -1 c151 -1 282 0 290 2 13
3 15 221 15 1894 0 1673 2 1890 15 1891 8 1 336 2 729 3 l715 1 1 280 c0 154
-1 285 -3 292 -3 9 -238 12 -960 12 -526 0 -997 1 -1047 1 l-90 2 60 13 c338
74 574 362 577 705 1 104 -4 135 -32 227 -78 253 -295 445 -565 499 -27 6
-172 13 -177 9z"/>
<path d="M3498 6271 l-3 -146 -280 0 c-154 0 -284 -3 -290 -7 -6 -4 -10 -111
-9 -290 l0 -283 1454 -3 c849 -1 1456 -6 1459 -11 9 -13 6 -2599 -2 -2608 -4
-3 -661 -7 -1459 -7 l-1452 -1 -1 -283 c0 -156 2 -287 5 -292 3 -4 102 -7 220
-7 188 0 215 -2 212 -15 -2 -13 -62 -148 -172 -383 -15 -33 -60 -132 -100
-220 -40 -88 -93 -203 -118 -255 l-45 -95 -1 -233 c0 -128 1 -238 4 -245 4 -9
42 -13 146 -13 l142 0 291 584 292 583 288 -576 c159 -317 292 -579 295 -583
10 -10 576 -9 576 1 0 5 -162 332 -360 728 -201 401 -354 719 -347 720 6 0
496 2 1087 3 591 2 1078 3 1081 4 3 1 5 854 5 1895 l-1 1892 -1160 0 c-638 0
-1162 3 -1165 7 -4 4 -6 68 -5 143 0 74 -2 136 -5 136 -3 1 -134 3 -292 4
l-287 2 -3 -146z"/>
</g>
</svg>
